<?xml version="1.0" encoding="UTF-8"?>
<!DOCTYPE svg PUBLIC "-//W3C//DTD SVG 1.1//EN" "http://www.w3.org/Graphics/SVG/1.1/DTD/svg11.dtd">
<!-- Creator: CorelDRAW -->
<svg xmlns="http://www.w3.org/2000/svg" xml:space="preserve" width="101.618mm" height="101.617mm" version="1.1" style="shape-rendering:geometricPrecision; text-rendering:geometricPrecision; image-rendering:optimizeQuality; fill-rule:evenodd; clip-rule:evenodd"
viewBox="0 0 621.9 621.9"
 xmlns:xlink="http://www.w3.org/1999/xlink"
 xmlns:xodm="http://www.corel.com/coreldraw/odm/2003">
 <defs>
  <style type="text/css">
   <![CDATA[
    .fil0 {fill:#818181}
   ]]>
  </style>
 </defs>
 <g id="Camada_x0020_1">
  <metadata id="CorelCorpID_0Corel-Layer"/>
  <path class="fil0" d="M-0 247.71c0,65.92 9.54,99.06 40.37,150.68 25.05,41.95 64.38,73.14 107.5,94.88 71.92,36.25 170.18,32.98 239.41,-8.85 5.05,-3.05 9.27,-5.79 14.25,-8.42 12.64,8.46 116.94,119.59 135.72,134.66 20.25,16.25 50.91,14.79 69.56,-3.86 18.33,-18.33 20.11,-48.15 4.56,-68.65 -11.63,-15.33 -127.29,-124.58 -135.36,-136.63 31.04,-58.66 42.1,-75.84 42.1,-153.81 0,-34.65 -12.62,-75.68 -24.28,-98.77 -3.31,-6.55 -6.4,-13.83 -10.38,-20.38 -44.37,-73.1 -125.83,-128.56 -213.05,-128.56 -47.12,0 -81.83,4.28 -121.43,24.28 -6.55,3.31 -13.83,6.4 -20.38,10.38 -6.8,4.13 -12.53,8.06 -18.49,12.27 -12.42,8.78 -23.52,17.88 -34.39,28.76 -43.8,43.86 -75.69,109.2 -75.69,172.02zm259.06 -177.21c102.21,0 185.07,83.42 185.07,186.32 0,102.9 -82.86,186.32 -185.07,186.32 -102.21,0 -185.07,-83.42 -185.07,-186.32 0,-102.9 82.86,-186.32 185.07,-186.32z"/>
 </g>
</svg>
